# xmcd CD database file
#
# Track frame offsets:
#	150
#	14303
#	31482
#	43772
#	53276
#	63099
#	77885
#	98112
#	108112
#	123551
#	134711
#	150018
#
# Disc length: 2263 seconds
#
# Revision: 1
# Processed by: cddbd v1.5.1PL2 Copyright (c) Steve Scherf et al.
# Submitted via: CDex 1.70beta2
#
DISCID=8c08d50c
DTITLE=Glen Campbell - Star Power
DYEAR=2001
DGENRE=Country
TTITLE0=Rhinestone Cowboy
TTITLE1=Southern Nights
TTITLE2=By the Time I Get to Phoenix
TTITLE3=Gentle on My Mind
TTITLE4=Dreams of the Everyday Housewife
TTITLE5=Crying
TTITLE6=Amazing Grace
TTITLE7=Try a Little Kindness
TTITLE8=I'm So Lonesome I Could Cry
TTITLE9=Heartache Number Three
TTITLE10=Rollin' in My Sweet Baby's Arms
TTITLE11=Medley: Wichita Lineman - Galveston - Country Boy
EXTD=YEAR: 2001
EXTT0=
EXTT1=
EXTT2=
EXTT3=
EXTT4=
EXTT5=
EXTT6=
EXTT7=
EXTT8=
EXTT9=
EXTT10=
EXTT11=
PLAYORDER=
